<svg xmlns="http://www.w3.org/2000/svg" viewBox="0 0 186.114 126.007">
  <g stroke="#000">
    <path fill="#2c89a0" d="M93.062 18.717 123.748 1l30.686 17.717-30.686 17.717z"/>
    <path fill="#5fbcd3" d="m123.748 71.867 30.686-17.717V18.717l-30.686 17.717z"/>
    <path fill="#afdde9" d="M93.062 18.717V54.15l30.686 17.717V36.434z"/>
    <path fill="#2c89a0" d="M31.69 18.717 62.376 1l30.686 17.717-30.686 17.717z"/>
    <path fill="#5fbcd3" d="M62.376 71.867 93.062 54.15V18.717L62.376 36.434z"/>
    <path fill="#afdde9" d="M31.69 18.717V54.15l30.686 17.717V36.434z"/>
    <path fill="#2c89a0" d="M62.37 36.427 93.056 18.71l30.686 17.717-30.686 17.717z"/>
    <path fill="#5fbcd3" d="m93.056 89.577 30.686-17.717V36.427L93.056 54.144z"/>
    <path fill="#afdde9" d="M62.37 36.427V71.86l30.686 17.717V54.144z"/>
    <path fill="#2c89a0" d="m123.742 36.427 30.686-17.717 30.686 17.717-30.686 17.717z"/>
    <path fill="#5fbcd3" d="m154.428 89.577 30.686-17.717V36.427l-30.686 17.717z"/>
    <path fill="#afdde9" d="M123.742 36.427V71.86l30.686 17.717V54.144z"/>
    <path fill="#f59" d="M1 36.427 31.686 18.71l30.686 17.717-30.686 17.717z"/>
    <path fill="#fac" d="M31.686 89.577 62.372 71.86V36.427L31.686 54.144z"/>
    <path fill="#ffd5e5" d="M1 36.427V71.86l30.686 17.717V54.144z"/>
    <path fill="#f59" d="m93.06 54.147 30.686-17.717 30.686 17.717-30.686 17.717z"/>
    <path fill="#fac" d="m123.746 107.297 30.686-17.717V54.147l-30.686 17.717z"/>
    <path fill="#ffd5e5" d="M93.06 54.147V89.58l30.686 17.717V71.864z"/>
    <path fill="#f59" d="M31.69 54.147 62.376 36.43l30.686 17.717-30.686 17.717z"/>
    <path fill="#fac" d="M62.376 107.297 93.062 89.58V54.147L62.376 71.864z"/>
    <path fill="#ffd5e5" d="M31.69 54.147V89.58l30.686 17.717V71.864z"/>
    <path fill="#f59" d="M62.38 71.857 93.066 54.14l30.686 17.717-30.686 17.717z"/>
    <path fill="#fac" d="m93.066 125.007 30.686-17.717V71.857L93.066 89.574z"/>
    <path fill="#ffd5e5" d="M62.38 71.857v35.433l30.686 17.717V89.574z"/>
  </g>
</svg>
