<svg xmlns="http://www.w3.org/2000/svg" viewBox="0 0 140 143">
  <path d="M3.497 104.981c4.904 14.315-.938 17.624 5.426 24.157 3.417 3.508 13.679 2.057 20.451 5.9l-.003-.004c29.045 19.099 73.407-2.905 74.095-8.897.688-5.992-67.704-94.138-72.587-94.138-4.882 0-42.316 29.389-27.382 72.982Zm132.511-67.088c-4.904-14.315.938-17.624-5.426-24.157-3.417-3.507-13.679-2.057-20.451-5.9l.003.004c-29.045-19.1-71.022 1.815-74.095 8.897-3.072 7.082 65.582 94.138 72.587 94.138 7.005 0 42.316-29.39 27.382-72.982Z" style="currentColor"/>
</svg>
