<svg xmlns="http://www.w3.org/2000/svg" viewBox="0 0 126.523 110.304">
  <g stroke="#000">
    <path fill="#2ca089" d="M63.37 19.717 94.056 2l30.686 17.717-30.686 17.717z"/>
    <path fill="#5fd3bc" d="m94.056 72.867 30.686-17.717V19.717L94.056 37.434z"/>
    <path fill="#afe9dd" d="M63.37 19.717V55.15l30.686 17.717V37.434z"/>
    <path fill="#2ca089" d="m32.68 37.436 30.686-17.717 30.686 17.717-30.686 17.717z"/>
    <path fill="#5fd3bc" d="m63.366 90.586 30.686-17.717V37.436L63.366 55.153z"/>
    <path fill="#afe9dd" d="M32.68 37.436v35.433l30.686 17.717V55.153z"/>
    <path fill="#2ca089" d="m2 55.146 30.686-17.717 30.686 17.717-30.686 17.717z"/>
    <path fill="#5fd3bc" d="m32.686 108.296 30.686-17.717V55.146L32.686 72.863z"/>
    <path fill="#afe9dd" d="M2 55.146v35.433l30.686 17.717V72.863z"/>
  </g>
</svg>
