<svg xmlns="http://www.w3.org/2000/svg" viewBox="0 0 126.509 146.2">
  <g stroke="#000">
    <path fill="#2c89a0" d="M31.68 18.717 62.366 1l30.686 17.717-30.686 17.717z"/>
    <path fill="#5fbcd3" d="M62.366 71.867 93.052 54.15V18.717L62.366 36.434z"/>
    <path fill="#afdde9" d="M31.68 18.717V54.15l30.686 17.717V36.434z"/>
    <path fill="#2c89a0" d="m1 36.436 30.686-17.717 30.686 17.717-30.686 17.717z"/>
    <path fill="#5fbcd3" d="m31.686 89.586 30.686-17.717V36.436L31.686 54.153z"/>
    <path fill="#afdde9" d="M1 36.436v35.433l30.686 17.717V54.153z"/>
    <path fill="#2c89a0" d="m31.68 54.146 30.686-17.717 30.686 17.717-30.686 17.717z"/>
    <path fill="#5fbcd3" d="m62.366 107.296 30.686-17.717V54.146L62.366 71.863z"/>
    <path fill="#afdde9" d="M31.68 54.146v35.433l30.686 17.717V71.863z"/>
    <path fill="#2c89a0" d="m62.37 71.866 30.686-17.717 30.686 17.717-30.686 17.717z"/>
    <path fill="#5fbcd3" d="m93.056 125.016 30.686-17.717V71.866L93.056 89.583z"/>
    <path fill="#afdde9" d="M62.37 71.866v35.433l30.686 17.717V89.583z"/>
    <path fill="#2c89a0" d="m31.68 89.586 30.686-17.717 30.686 17.717-30.686 17.717z"/>
    <path fill="#5fbcd3" d="m62.366 142.736 30.686-17.717V89.586l-30.686 17.717z"/>
    <path fill="#afdde9" d="M31.68 89.586v35.433l30.686 17.717v-35.433z"/>
  </g>
</svg>
