<svg xmlns="http://www.w3.org/2000/svg" viewBox="0 0 157.953 110.894">
  <g stroke="#000">
    <path fill="#fc0" d="M2 19.717 32.686 2l30.686 17.717-30.686 17.717z"/>
    <path fill="#fd5" d="M32.686 72.867 63.372 55.15V19.717L32.686 37.434z"/>
    <path fill="#fea" d="M2 19.717V55.15l30.686 17.717V37.434z"/>
    <path fill="#fc0" d="m32.69 37.434 30.686-17.717 30.686 17.717-30.686 17.717z"/>
    <path fill="#fd5" d="m63.376 90.584 30.686-17.717V37.434L63.376 55.151z"/>
    <path fill="#fea" d="M32.69 37.434v35.433l30.686 17.717V55.151z"/>
    <path fill="#fc0" d="m94.062 37.434 30.686-17.717 30.686 17.717-30.686 17.717z"/>
    <path fill="#fd5" d="m124.748 90.584 30.686-17.717V37.434l-30.686 17.717z"/>
    <path fill="#fea" d="M94.062 37.434v35.433l30.686 17.717V55.151z"/>
    <path fill="#fc0" d="m63.372 55.285 30.686-17.717 30.686 17.717-30.686 17.717z"/>
    <path fill="#fd5" d="m94.058 108.435 30.686-17.717V55.285L94.058 73.002z"/>
    <path fill="#fea" d="M63.372 55.285v35.433l30.686 17.717V73.002z"/>
  </g>
</svg>
