<svg xmlns="http://www.w3.org/2000/svg" viewBox="0 0 165.57 100.049">
  <g stroke="#000">
    <path fill="#a0892c" d="M5.643 23.653 36.33 5.936l30.686 17.717L36.33 41.37z"/>
    <path fill="#d3bc5f" d="M36.333 76.803 67.02 59.086V23.653L36.333 41.37z"/>
    <path fill="#e9ddaf" d="M5.643 23.653v35.433L36.33 76.803V41.37z"/>
    <path fill="#a0892c" d="m67.013 23.653 30.69-17.719 30.68 17.72-30.68 17.71z"/>
    <path fill="#d3bc5f" d="m97.703 76.803 30.686-17.717V23.653L97.703 41.37z"/>
    <path fill="#e9ddaf" d="M67.013 23.653v35.433L97.7 76.803V41.37z"/>
    <path fill="#a0892c" d="M36.333 41.363 67.02 23.646l30.686 17.717L67.02 59.08z"/>
    <path fill="#d3bc5f" d="M67.013 94.513 97.7 76.796V41.363L67.013 59.08z"/>
    <path fill="#e9ddaf" d="M36.333 41.363v35.433L67.02 94.513V59.08z"/>
    <path fill="#a0892c" d="m97.703 41.363 30.686-17.717 30.686 17.717L128.39 59.08z"/>
    <path fill="#d3bc5f" d="m128.383 94.513 30.686-17.717V41.363L128.383 59.08z"/>
    <path fill="#e9ddaf" d="M97.703 41.363v35.433l30.686 17.717V59.08z"/>
  </g>
</svg>
